<svg version="1.0"
    xmlns="http://www.w3.org/2000/svg" width="167pt" height="164pt" viewBox="0 0 167 164" preserveAspectRatio="xMidYMid meet">

    <g transform="translate(0,164) scale(0.1,-0.1)" fill="currentColor">
        <path d="M540 1604 c-110 -29 -198 -81 -290 -173 -93 -92 -139 -167 -181 -296
-23 -69 -24 -76 -27 -597 l-3 -528 116 0 115 0 0 479 c0 283 4 500 10 532 26
136 128 272 248 331 54 27 79 33 151 36 116 5 184 -19 260 -94 30 -30 52 -56
50 -59 -3 -2 -29 8 -59 23 -49 24 -66 27 -155 27 -91 0 -105 -3 -157 -29 -108
-55 -182 -150 -207 -264 -7 -35 -11 -212 -11 -518 l0 -465 116 3 115 3 1 185
c1 284 -11 282 158 27 l145 -217 138 0 c108 0 137 3 131 13 -4 6 -47 72 -96
144 -48 73 -88 136 -88 140 0 8 131 37 134 31 1 -2 51 -76 111 -166 l109 -162
133 0 c73 0 133 3 133 7 0 4 -63 103 -141 219 l-140 211 48 51 c89 94 153 222
180 365 59 313 -120 640 -404 737 -40 13 -75 22 -78 18 -3 -3 34 -46 83 -94
62 -63 99 -110 124 -159 183 -355 26 -757 -319 -817 -38 -6 -82 -8 -98 -4 -29
8 -28 8 27 26 157 49 277 182 323 356 20 76 19 210 -1 288 -48 188 -202 340
-394 391 -70 19 -238 18 -310 -1z m300 -559 c65 -34 95 -122 63 -185 -69 -133
-266 -88 -266 60 0 104 111 173 203 125z"/>
    </g>
</svg>

